<svg width="848" height="213" viewBox="0 0 848 213" fill="none" xmlns="http://www.w3.org/2000/svg">
<g clip-path="url(#clip0_191_1777)">
<path d="M84.4088 176.041L55.2911 159.606L126.163 118.662V63.8949L94.6222 45.6392L32.0713 81.8439L30.4341 73.6635L94.3287 36.5479L147.64 67.2138L179 49.3688L125.694 18.3287L94.6222 0L0.105743 54.946L0 136.918L94.4125 82.3167L94.8501 97.091L0 150.33V164.301L23.6555 177.882L23.6938 177.86L84.4088 213L178.995 158.213V122.426L147.627 139.599L84.4088 176.041Z" fill="#0065FC"/>
</g>
<path d="M762.784 122.506V120.765C762.784 114.188 763.723 108.136 765.602 102.61C767.481 97.0278 770.217 92.192 773.809 88.1023C777.402 84.0126 781.823 80.8348 787.073 78.5689C792.323 76.2477 798.347 75.0872 805.145 75.0872C811.943 75.0872 817.995 76.2477 823.3 78.5689C828.606 80.8348 833.055 84.0126 836.647 88.1023C840.295 92.192 843.058 97.0278 844.937 102.61C846.816 108.136 847.755 114.188 847.755 120.765V122.506C847.755 129.027 846.816 135.079 844.937 140.661C843.058 146.187 840.295 151.023 836.647 155.168C833.055 159.258 828.633 162.435 823.383 164.701C818.133 166.967 812.109 168.1 805.311 168.1C798.513 168.1 792.462 166.967 787.156 164.701C781.906 162.435 777.457 159.258 773.809 155.168C770.217 151.023 767.481 146.187 765.602 140.661C763.723 135.079 762.784 129.027 762.784 122.506ZM786.659 120.765V122.506C786.659 126.264 786.99 129.773 787.653 133.034C788.317 136.294 789.367 139.168 790.804 141.655C792.296 144.087 794.23 145.994 796.607 147.375C798.983 148.757 801.885 149.448 805.311 149.448C808.627 149.448 811.473 148.757 813.85 147.375C816.226 145.994 818.133 144.087 819.57 141.655C821.007 139.168 822.057 136.294 822.72 133.034C823.438 129.773 823.798 126.264 823.798 122.506V120.765C823.798 117.117 823.438 113.691 822.72 110.485C822.057 107.224 820.979 104.351 819.487 101.864C818.05 99.3214 816.143 97.3318 813.767 95.8949C811.39 94.458 808.516 93.7395 805.145 93.7395C801.774 93.7395 798.9 94.458 796.524 95.8949C794.203 97.3318 792.296 99.3214 790.804 101.864C789.367 104.351 788.317 107.224 787.653 110.485C786.99 113.691 786.659 117.117 786.659 120.765Z" fill="black"/>
<path d="M732.064 126.402H756.851C756.354 134.526 754.116 141.738 750.136 148.039C746.212 154.339 740.713 159.258 733.639 162.795C726.621 166.332 718.165 168.1 708.272 168.1C700.535 168.1 693.599 166.774 687.464 164.121C681.33 161.413 676.08 157.544 671.714 152.515C667.403 147.486 664.114 141.407 661.849 134.277C659.583 127.148 658.45 119.162 658.45 110.319V101.947C658.45 93.104 659.61 85.1181 661.931 77.9887C664.308 70.8041 667.679 64.6972 672.045 59.668C676.466 54.6387 681.744 50.7701 687.879 48.0621C694.014 45.354 700.867 44 708.438 44C718.496 44 726.98 45.8238 733.888 49.4714C740.852 53.1189 746.24 58.1481 750.053 64.559C753.922 70.9699 756.243 78.265 757.017 86.4444H732.147C731.871 81.581 730.904 77.4637 729.246 74.0924C727.588 70.6659 725.073 68.0961 721.702 66.3828C718.386 64.6143 713.965 63.73 708.438 63.73C704.293 63.73 700.673 64.5038 697.578 66.0512C694.483 67.5987 691.886 69.9475 689.786 73.0977C687.686 76.2478 686.11 80.227 685.06 85.0352C684.066 89.788 683.568 95.3699 683.568 101.781V110.319C683.568 116.565 684.038 122.064 684.977 126.816C685.917 131.514 687.354 135.493 689.288 138.754C691.278 141.959 693.82 144.391 696.915 146.049C700.065 147.652 703.851 148.453 708.272 148.453C713.467 148.453 717.75 147.624 721.122 145.966C724.493 144.308 727.063 141.849 728.831 138.588C730.655 135.327 731.733 131.265 732.064 126.402Z" fill="black"/>
<path d="M652.103 76.7452V93.6567H599.876V76.7452H652.103ZM612.809 54.6111H636.684V139.417C636.684 142.015 637.015 144.004 637.679 145.386C638.397 146.767 639.447 147.735 640.829 148.287C642.21 148.785 643.951 149.033 646.051 149.033C647.544 149.033 648.87 148.978 650.031 148.868C651.246 148.702 652.269 148.536 653.098 148.37L653.181 165.945C651.136 166.608 648.925 167.133 646.549 167.52C644.172 167.907 641.547 168.1 638.673 168.1C633.423 168.1 628.836 167.244 624.912 165.53C621.043 163.762 618.059 160.943 615.959 157.075C613.859 153.206 612.809 148.121 612.809 141.821V54.6111Z" fill="black"/>
<path d="M567.42 96.3094V166.442H543.545V76.7451H566.011L567.42 96.3094ZM594.445 76.1648L594.031 98.299C592.87 98.1332 591.461 97.995 589.803 97.8845C588.2 97.7187 586.735 97.6358 585.409 97.6358C582.038 97.6358 579.109 98.0779 576.622 98.9622C574.19 99.7911 572.145 101.035 570.487 102.693C568.884 104.351 567.669 106.368 566.84 108.744C566.066 111.121 565.624 113.829 565.513 116.868L560.705 115.376C560.705 109.573 561.285 104.24 562.446 99.3767C563.607 94.458 565.292 90.1748 567.503 86.5273C569.769 82.8797 572.532 80.0611 575.793 78.0715C579.053 76.0819 582.784 75.0872 586.984 75.0872C588.311 75.0872 589.665 75.1977 591.046 75.4188C592.428 75.5846 593.561 75.8333 594.445 76.1648Z" fill="black"/>
<path d="M506.194 146.215V106.257C506.194 103.383 505.724 100.924 504.785 98.8793C503.845 96.7791 502.38 95.1488 500.391 93.9882C498.457 92.8276 495.942 92.2473 492.847 92.2473C490.194 92.2473 487.901 92.7171 485.966 93.6566C484.032 94.5409 482.54 95.8396 481.49 97.5529C480.44 99.2109 479.915 101.173 479.915 103.439H456.04C456.04 99.6253 456.924 96.0054 458.693 92.5789C460.461 89.1524 463.031 86.1404 466.402 83.5429C469.773 80.8901 473.78 78.8176 478.423 77.3254C483.12 75.8333 488.37 75.0872 494.173 75.0872C501.137 75.0872 507.327 76.2477 512.743 78.5689C518.159 80.8901 522.414 84.3719 525.509 89.0142C528.66 93.6566 530.235 99.4596 530.235 106.423V144.805C530.235 149.724 530.539 153.759 531.147 156.909C531.754 160.004 532.639 162.712 533.799 165.033V166.442H509.676C508.515 164.01 507.631 160.971 507.023 157.323C506.47 153.62 506.194 149.918 506.194 146.215ZM509.344 111.812L509.51 125.324H496.163C493.013 125.324 490.277 125.683 487.956 126.402C485.635 127.12 483.728 128.143 482.236 129.469C480.744 130.74 479.638 132.232 478.92 133.946C478.257 135.659 477.925 137.538 477.925 139.583C477.925 141.628 478.395 143.479 479.334 145.137C480.274 146.74 481.628 148.011 483.397 148.95C485.165 149.835 487.238 150.277 489.614 150.277C493.206 150.277 496.329 149.558 498.982 148.121C501.634 146.685 503.679 144.916 505.116 142.816C506.608 140.716 507.382 138.726 507.437 136.847L513.738 146.961C512.853 149.227 511.638 151.576 510.09 154.007C508.598 156.439 506.691 158.733 504.37 160.888C502.049 162.988 499.258 164.729 495.997 166.111C492.737 167.437 488.868 168.1 484.391 168.1C478.699 168.1 473.532 166.967 468.889 164.701C464.302 162.38 460.654 159.202 457.946 155.168C455.294 151.078 453.967 146.436 453.967 141.241C453.967 136.543 454.852 132.371 456.62 128.723C458.389 125.075 460.986 122.008 464.413 119.521C467.894 116.979 472.233 115.072 477.428 113.801C482.623 112.475 488.647 111.812 495.5 111.812H509.344Z" fill="black"/>
<path d="M339.685 95.3146V166.442H315.728V76.7451H338.193L339.685 95.3146ZM336.369 118.443H329.738C329.738 112.198 330.484 106.451 331.976 101.2C333.523 95.8949 335.762 91.3078 338.691 87.4392C341.675 83.5153 345.35 80.4756 349.716 78.3202C354.082 76.1648 359.139 75.0872 364.887 75.0872C368.866 75.0872 372.514 75.6951 375.83 76.9109C379.146 78.0715 381.992 79.923 384.368 82.4652C386.8 84.9522 388.679 88.2129 390.005 92.2473C391.332 96.2265 391.995 101.007 391.995 106.589V166.442H368.12V109.242C368.12 105.152 367.567 102.002 366.462 99.7911C365.357 97.5805 363.782 96.033 361.737 95.1488C359.747 94.2645 357.343 93.8224 354.524 93.8224C351.43 93.8224 348.721 94.458 346.4 95.7291C344.134 97.0002 342.255 98.7687 340.763 101.035C339.271 103.245 338.166 105.843 337.447 108.827C336.729 111.812 336.369 115.017 336.369 118.443ZM389.757 115.708L381.218 116.786C381.218 110.927 381.936 105.484 383.373 100.454C384.866 95.4251 387.049 91.0038 389.922 87.1905C392.852 83.3771 396.471 80.4203 400.782 78.3202C405.093 76.1648 410.067 75.0872 415.704 75.0872C420.015 75.0872 423.939 75.7227 427.476 76.9938C431.013 78.2097 434.025 80.1716 436.512 82.8797C439.054 85.5325 440.988 89.0142 442.315 93.325C443.696 97.6358 444.387 102.914 444.387 109.159V166.442H420.429V109.159C420.429 105.014 419.877 101.864 418.771 99.7082C417.721 97.4976 416.174 95.9778 414.129 95.1488C412.139 94.2645 409.763 93.8224 407 93.8224C404.126 93.8224 401.611 94.4027 399.456 95.5633C397.3 96.6686 395.504 98.2161 394.067 100.206C392.63 102.195 391.553 104.516 390.834 107.169C390.116 109.767 389.757 112.613 389.757 115.708Z" fill="black"/>
<path d="M280.615 134.858C280.615 132.702 280.283 130.768 279.62 129.055C279.012 127.286 277.851 125.684 276.138 124.247C274.425 122.754 272.021 121.29 268.926 119.853C265.831 118.416 261.824 116.924 256.906 115.376C251.434 113.608 246.239 111.618 241.32 109.408C236.457 107.197 232.146 104.627 228.388 101.698C224.685 98.7136 221.756 95.2595 219.601 91.3356C217.501 87.4117 216.451 82.8522 216.451 77.6572C216.451 72.628 217.556 68.0685 219.767 63.9788C221.977 59.8339 225.072 56.2968 229.051 53.3677C233.031 50.3834 237.728 48.0898 243.144 46.4871C248.616 44.8844 254.612 44.083 261.133 44.083C270.031 44.083 277.796 45.6857 284.428 48.8912C291.06 52.0966 296.2 56.4903 299.847 62.0722C303.55 67.654 305.402 74.0373 305.402 81.2219H280.698C280.698 77.6849 279.952 74.59 278.459 71.9372C277.022 69.2291 274.812 67.1014 271.827 65.5539C268.898 64.0065 265.195 63.2327 260.719 63.2327C256.408 63.2327 252.816 63.8959 249.942 65.2223C247.068 66.4935 244.913 68.2343 243.476 70.445C242.039 72.6004 241.32 75.0321 241.32 77.7401C241.32 79.785 241.818 81.6364 242.813 83.2944C243.863 84.9524 245.41 86.4998 247.455 87.9367C249.5 89.3737 252.014 90.7277 254.999 91.9988C257.983 93.2699 261.437 94.5134 265.361 95.7293C271.938 97.7189 277.713 99.9571 282.687 102.444C287.716 104.931 291.917 107.722 295.288 110.817C298.659 113.912 301.201 117.421 302.915 121.345C304.628 125.269 305.485 129.718 305.485 134.692C305.485 139.942 304.462 144.64 302.417 148.785C300.372 152.93 297.416 156.439 293.547 159.313C289.678 162.187 285.064 164.37 279.703 165.862C274.342 167.354 268.346 168.1 261.714 168.1C255.745 168.1 249.859 167.327 244.056 165.779C238.253 164.176 232.975 161.772 228.222 158.567C223.525 155.362 219.767 151.272 216.948 146.298C214.13 141.324 212.72 135.438 212.72 128.64H237.673C237.673 132.398 238.253 135.576 239.414 138.174C240.574 140.771 242.205 142.871 244.305 144.474C246.46 146.077 249.002 147.237 251.932 147.956C254.916 148.674 258.177 149.034 261.714 149.034C266.024 149.034 269.562 148.426 272.325 147.21C275.143 145.994 277.216 144.308 278.542 142.153C279.924 139.997 280.615 137.566 280.615 134.858Z" fill="black"/>
<defs>
<clipPath id="clip0_191_1777">
<rect width="179" height="213" fill="white"/>
</clipPath>
</defs>
</svg>
